<?xml version="1.0" encoding="utf-8"?>
<!-- Generator: Adobe Illustrator 24.2.0, SVG Export Plug-In . SVG Version: 6.00 Build 0)  -->
<svg version="1.1" id="Layer_1" xmlns="http://www.w3.org/2000/svg" xmlns:xlink="http://www.w3.org/1999/xlink" x="0px" y="0px"
	 width="603.2px" height="543.5px" viewBox="0 0 603.2 543.5" style="enable-background:new 0 0 603.2 543.5;" xml:space="preserve"
	>
<style type="text/css">
	.st0{fill:none;}
</style>
<path d="M523.9,39.2c9,4,18.2,8.2,28.6,10.9c1.6,0.4,3.3,0.8,5,1.1V30.7h-54.7c2.2,0.7,4.5,1.5,6.6,2.3
	C514.3,34.9,518.9,37,523.9,39.2z"/>
<path d="M73.1,45.5c1.9,0.3,3.7,0.5,5.6,0.7c5.6,0.7,11.1,1.2,16.4,1.8c9.5,0.9,18.4,1.8,27.3,3.5c2.8,0.5,5.5,1.1,8.4,1.8
	c12.5,2.8,25.4,5.6,38.6,1.9c12.1-3.4,22.8-11.9,33.1-20.2c1.8-1.4,3.6-2.9,5.4-4.3h-33c-3.7,2.4-7.4,4.3-10.9,5.3
	c-8.4,2.3-18.3,0.1-28.9-2.2c-2.9-0.6-5.9-1.3-8.9-1.9c-2.3-0.4-4.5-0.8-6.8-1.2H36.6v16.7c0.9-0.5,1.8-1,2.8-1.4
	C48.4,42.1,60.4,43.7,73.1,45.5z"/>
<path d="M415,40.6c13.6,5.2,27.4,8,40.8,10.6l2.5,0.5c14.1,2.8,27.8,5.8,40.3,10.5c4.6,1.8,9.1,3.8,13.9,5.9
	c8.6,3.9,17.5,7.9,27.5,10.4c5.8,1.5,11.7,2.4,17.5,3.3c0,0,0,0,0,0V61.7c-4.4-0.7-8.6-1.5-12.5-2.5c-8.3-2.1-16.1-5.6-24.3-9.3
	c-4.8-2.2-9.8-4.4-14.9-6.4c-14-5.3-28.5-8.5-43.5-11.5l-2.5-0.5c-1.5-0.3-3.1-0.6-4.6-0.9h-65.6c5.3,1.4,10.6,3.7,16.2,6.1
	C408.8,38,411.9,39.4,415,40.6z"/>
<path d="M331.7,40.4c10,0.6,19.5-2.8,28.8-6.1c3.9-1.4,7.7-2.7,11.2-3.7h-67.5c0.2,0.1,0.5,0.2,0.7,0.4
	C312.8,35.2,321.7,39.8,331.7,40.4z"/>
<path d="M80.6,74.2c1.8,0.2,3.6,0.5,5.4,0.7c5.4,0.7,10.6,1.2,15.7,1.7c9.1,0.9,17.7,1.7,26.1,3.4c2.6,0.5,5.3,1.1,8,1.7
	c12,2.7,24.4,5.4,37.2,1.9c11.7-3.3,21.9-11.5,31.8-19.4c3-2.4,6.1-4.9,9.2-7.2c12.5-9.3,26.1-16.4,39-22.6c2.6-1.3,5.2-2.5,7.7-3.6
	h-43.4c-5.1,3.1-10.2,6.5-15.3,10.2c-3.3,2.5-6.6,5.1-9.7,7.6c-8.7,7-17,13.6-24.7,15.8c-7.9,2.2-17.4,0.1-27.5-2.1
	c-2.8-0.6-5.7-1.3-8.6-1.8c-9.4-1.8-18.8-2.7-27.9-3.6c-4.9-0.5-10.1-1-15.2-1.6c-1.7-0.2-3.4-0.4-5.2-0.7
	c-13.6-1.8-29.1-3.9-42.7,1.9c-1.4,0.6-2.7,1.2-4,2v25c3.9-3.7,7.9-6.9,11.9-8.6C57,71,68.5,72.6,80.6,74.2z"/>
<path d="M57.6,103.4c8.1-3.5,19-2,30.5-0.4c1.7,0.2,3.4,0.5,5.1,0.7c5.1,0.6,10.2,1.1,15,1.6c8.7,0.9,16.9,1.7,25,3.2
	c2.5,0.5,5,1,7.7,1.6c11.5,2.6,23.5,5.2,35.8,1.8c11.2-3.1,21.1-11,30.6-18.7c2.9-2.3,5.8-4.7,8.8-6.9c11.9-8.9,24.9-15.6,37.2-21.6
	c12.6-6.1,24.7-11.4,34.5-9.4c4.5,0.9,9.5,3.5,14.8,6.3c7.6,4,16.1,8.4,25.8,9c9.6,0.6,18.8-2.7,27.7-5.8c6-2.1,11.7-4.2,16.7-4.6
	c8.3-0.8,17.1,3,26.3,6.9c2.9,1.2,5.9,2.5,8.9,3.7c13,5,26.3,7.6,39.1,10.2l2.4,0.5c13.5,2.7,26.6,5.5,38.5,10.1
	c4.4,1.7,8.7,3.6,13.2,5.7c8.2,3.7,16.8,7.5,26.4,10c5.6,1.4,11.2,2.3,16.7,3.2c4.6,0.7,9.1,1.5,13.3,2.4V92.4
	c-3.4-0.7-6.8-1.2-10.2-1.7c-5.3-0.8-10.3-1.6-14.9-2.8c-7.9-2-15.3-5.4-23.2-8.9c-4.6-2.1-9.4-4.2-14.3-6.1
	c-13.4-5.1-27.4-8.1-41.7-11l-2.4-0.5c-12.5-2.5-24.4-4.9-35.8-9.3c-2.7-1-5.4-2.2-8.2-3.4c-10.6-4.5-22.6-9.6-36-8.4
	c-7.5,0.7-14.6,3.2-21.6,5.7c-7.3,2.6-14.2,5.1-19.8,4.7c-5.4-0.3-11.4-3.5-17.7-6.8c-6.3-3.3-12.8-6.7-20.1-8.2
	c-16-3.2-31.4,3.4-47.2,11.1c-13.2,6.4-27.2,13.7-40.4,23.5c-3.2,2.4-6.3,4.9-9.3,7.3c-8.3,6.7-16.2,13-23.5,15
	c-7.5,2.1-16.5,0.1-26.1-2c-2.7-0.6-5.4-1.2-8.2-1.7c-9-1.7-18-2.6-26.8-3.5c-4.7-0.5-9.6-1-14.5-1.6c-1.6-0.2-3.3-0.4-4.9-0.7
	c-13.1-1.8-27.9-3.8-41.1,1.9c-4.8,2.1-9.1,5-13.1,8.4v28.2c0.5-0.6,1.1-1.2,1.6-1.7C44.5,113.2,51,106.2,57.6,103.4z"/>
<path d="M48.3,147.8c6-6.4,12.1-13,18.3-15.6c7.6-3.3,17.9-1.9,28.9-0.4c1.6,0.2,3.3,0.4,4.9,0.6c4.9,0.6,9.7,1.1,14.3,1.6
	c8.3,0.8,16.1,1.6,23.8,3.1c2.4,0.5,4.8,1,7.3,1.5c11.1,2.5,22.5,5,34.4,1.7c10.8-3,20.3-10.6,29.4-17.9c2.7-2.2,5.6-4.5,8.3-6.5
	c11.3-8.4,23.7-14.9,35.4-20.6c11.9-5.8,23.4-10.8,32.6-9c4.3,0.9,9,3.3,14,6c7.3,3.8,15.5,8.1,24.8,8.7c9.3,0.6,18.1-2.6,26.6-5.6
	c5.7-2,11.1-4,15.8-4.4c7.9-0.7,16.1,2.8,24.9,6.6c2.8,1.2,5.6,2.4,8.5,3.5c12.5,4.8,25.1,7.3,37.4,9.8l2.3,0.5
	c12.8,2.6,25.3,5.2,36.7,9.6c4.2,1.6,8.3,3.4,12.6,5.4c7.9,3.5,16,7.2,25.3,9.6c5.3,1.4,10.8,2.2,16,3.1c8.3,1.3,16.1,2.6,22.3,5.5
	c1.4,0.7,2.9,1.5,4.3,2.4v-22.3c-7.6-2.8-15.6-4.1-23.4-5.4c-5-0.8-9.8-1.6-14.2-2.7c-7.5-1.9-14.6-5.1-22-8.4
	c-4.4-2-8.9-4-13.7-5.8c-12.8-4.9-26.2-7.8-39.9-10.5l-2.3-0.5c-11.9-2.4-23.2-4.6-34.1-8.8c-2.6-1-5.1-2.1-7.8-3.2
	c-10.1-4.3-21.7-9.2-34.5-8.1c-7.2,0.7-14.1,3.1-20.7,5.5c-6.9,2.5-13.5,4.8-18.7,4.5c-5.1-0.3-10.8-3.3-16.8-6.4
	c-6-3.2-12.3-6.4-19.4-7.9c-15.4-3.1-30.2,3.2-45.4,10.6c-12.6,6.1-26,13.1-38.6,22.5c-3.1,2.3-6,4.7-8.9,7
	c-7.9,6.3-15.4,12.3-22.2,14.2c-7,2-15.6,0.1-24.7-1.9c-2.6-0.6-5.2-1.2-7.9-1.7c-8.6-1.7-17.2-2.5-25.6-3.3
	c-4.5-0.4-9.2-0.9-13.8-1.5c-1.6-0.2-3.1-0.4-4.7-0.6c-12.5-1.7-26.8-3.6-39.4,1.8c-8.8,3.8-15.7,10.4-22.2,17.3v28.4
	c1-0.8,1.9-1.7,2.8-2.5C42.5,154,45.5,150.8,48.3,147.8z"/>
<path d="M58.5,175.6c5.7-6.1,11.5-12.3,17.3-14.8c7.1-3,16.9-1.7,27.3-0.3c1.6,0.2,3.1,0.4,4.7,0.6c4.7,0.6,9.3,1,13.7,1.5
	c7.9,0.8,15.3,1.5,22.6,2.9c2.3,0.4,4.5,0.9,7,1.5c10.6,2.3,21.6,4.8,33,1.6c10.4-2.9,19.4-10.1,28.1-17.1c2.6-2.1,5.3-4.3,7.9-6.2
	c10.8-8,22.5-14.1,33.7-19.5c11.3-5.5,22.1-10.3,30.8-8.5c4,0.8,8.5,3.2,13.2,5.6c6.9,3.6,14.8,7.8,23.8,8.3
	c8.9,0.5,17.4-2.5,25.5-5.4c5.4-1.9,10.6-3.8,15-4.2c7.4-0.7,15.2,2.7,23.5,6.2c2.6,1.1,5.3,2.3,8.1,3.3c11.9,4.6,24,7,35.7,9.3
	l2.2,0.4c12.2,2.5,24.1,5,34.8,9.1c4,1.5,7.9,3.3,12,5.1c7.5,3.4,15.3,6.9,24.1,9.1c5.1,1.3,10.3,2.1,15.3,2.9
	c7.8,1.2,15.2,2.4,21.1,5.2c4.7,2.2,9.1,5.8,13.9,9.5c1.6,1.3,3.2,2.6,4.9,3.8v-25.3c-3.2-2.3-6.5-4.4-10.2-6.1
	c-8.5-4-17.6-5.4-26.5-6.8c-4.8-0.8-9.3-1.5-13.5-2.6c-7.1-1.8-13.8-4.8-20.9-8c-4.2-1.9-8.5-3.8-13-5.6c-12.2-4.7-25-7.4-38-10
	l-2.2-0.4c-11.4-2.3-22.1-4.4-32.4-8.4c-2.4-0.9-4.9-2-7.4-3.1c-9.7-4.2-20.7-8.9-33.1-7.7c-6.9,0.6-13.5,3-19.9,5.2
	c-6.5,2.3-12.7,4.5-17.6,4.2c-4.7-0.3-10.1-3.1-15.8-6.1c-5.8-3-11.8-6.2-18.6-7.5c-14.8-3-29,3.1-43.5,10.1
	c-12,5.8-24.8,12.5-36.9,21.5c-2.9,2.2-5.8,4.5-8.5,6.7c-7.5,6-14.5,11.7-21,13.5c-6.6,1.8-14.7,0-23.3-1.9c-2.4-0.5-5-1.1-7.5-1.6
	c-8.2-1.6-16.5-2.4-24.4-3.2c-4.3-0.4-8.7-0.9-13.1-1.4c-1.5-0.2-3-0.4-4.5-0.6c-12-1.6-25.6-3.5-37.8,1.8c-9.7,4.1-17,12-24,19.5
	c-2.5,2.7-4.9,5.2-7.3,7.5v25.2c4.7-2.9,9.2-6.4,13.4-10.3C52.9,181.6,55.7,178.6,58.5,175.6z"/>
<path d="M68.6,203.5c5.3-5.7,10.8-11.6,16.3-13.9c6.6-2.8,15.9-1.6,25.6-0.3c1.5,0.2,3,0.4,4.4,0.6c4.4,0.6,8.8,1,13,1.4
	c7.5,0.7,14.5,1.4,21.4,2.8c2.2,0.4,4.3,0.9,6.6,1.4c9.7,2.1,20.6,4.6,31.6,1.5c10-2.8,18.6-9.7,26.9-16.4c2.5-2,5-4,7.5-5.9
	c10.2-7.6,21.4-13.4,31.9-18.5c10.6-5.2,20.8-9.7,28.9-8c3.7,0.8,8,3,12.4,5.3c6.6,3.5,14.2,7.4,22.9,7.9c8.6,0.5,16.7-2.3,24.4-5.1
	c5.1-1.8,10-3.6,14.1-3.9c6.9-0.6,14.2,2.5,22,5.9c2.5,1.1,5.1,2.2,7.7,3.2c11.4,4.4,22.9,6.7,34,8.9l2.1,0.4
	c11.6,2.3,22.8,4.7,33,8.6c3.8,1.4,7.4,3.1,11.4,4.9c7.2,3.2,14.6,6.6,23,8.7c4.9,1.2,9.8,2,14.6,2.8c7.4,1.2,14.4,2.3,19.9,4.9
	c4.4,2.1,8.6,5.4,13.1,9c5.1,4.1,10.3,8.3,16.8,11.5c1.1,0.5,2.2,1,3.3,1.5v-22.7c-2.5-1.7-5-3.7-7.6-5.8
	c-5.2-4.1-10.5-8.4-17.1-11.5c-8.1-3.8-16.8-5.2-25.3-6.5c-4.5-0.7-8.8-1.4-12.8-2.4c-6.7-1.7-13.1-4.6-19.8-7.6
	c-4-1.8-8.1-3.7-12.4-5.3c-11.6-4.4-23.8-7.1-36.2-9.6l-2.1-0.4c-10.8-2.2-20.9-4.2-30.7-7.9c-2.3-0.9-4.6-1.9-7-2.9
	c-9.3-4-19.8-8.5-31.7-7.4c-6.6,0.6-12.9,2.8-19,5c-6.2,2.2-12,4.3-16.5,4c-4.4-0.3-9.4-2.9-14.8-5.7c-5.5-2.9-11.2-5.9-17.8-7.2
	c-14.2-2.9-27.8,2.9-41.6,9.7c-11.4,5.6-23.6,11.9-35.1,20.5c-2.8,2.1-5.5,4.2-8.1,6.3c-7.1,5.7-13.7,11-19.8,12.7
	c-6.1,1.7-13.8,0-21.9-1.8c-2.3-0.5-4.7-1-7.1-1.5c-7.8-1.5-15.7-2.3-23.3-3c-4.1-0.4-8.3-0.8-12.5-1.3c-1.4-0.2-2.8-0.4-4.3-0.6
	c-11.5-1.5-24.5-3.3-36.2,1.7c-9.3,4-16.3,11.4-23,18.7c-2.5,2.7-4.8,5.2-7.2,7.4c-3.2,3-6.6,5.6-10.2,7.8v22.4
	c8.9-3.7,16.8-8.9,23.9-15.6C63.3,209.2,66,206.3,68.6,203.5z"/>
<path d="M71,239.3c2.7-2.5,5.2-5.3,7.7-7.9c5-5.4,10.2-10.9,15.2-13.1c6.1-2.6,14.8-1.5,24-0.2c1.4,0.2,2.8,0.4,4.2,0.6
	c4.2,0.5,8.3,0.9,12.3,1.3c7.1,0.7,13.7,1.4,20.3,2.6c2,0.4,4.1,0.8,6.2,1.3c9.2,2,19.6,4.3,30.1,1.4c9.6-2.7,17.8-9.3,25.7-15.6
	c2.3-1.9,4.8-3.8,7.1-5.6c9.6-7.2,20.2-12.6,30.1-17.5c10-4.9,19.6-9.1,27.1-7.6c3.5,0.7,7.4,2.8,11.6,5c6.3,3.3,13.5,7.1,21.9,7.6
	c8.3,0.5,16.3-2.4,23.4-4.9c4.8-1.7,9.4-3.3,13.2-3.7c6.4-0.6,13.3,2.4,20.6,5.5c2.4,1,4.8,2.1,7.3,3c10.8,4.1,21.7,6.3,32.3,8.4
	l2,0.4c10.9,2.2,21.6,4.5,31.2,8.2c3.5,1.4,7,2.9,10.7,4.6c6.8,3.1,13.9,6.2,21.9,8.3c4.6,1.2,9.3,1.9,13.9,2.7
	c7,1.1,13.6,2.2,18.7,4.6c4.1,1.9,8.1,5.1,12.3,8.5c4.8,3.9,9.8,7.9,16,10.9c5.4,2.7,11.1,4.3,16.6,5.8c0.9,0.3,1.9,0.5,2.8,0.8
	v-20.8c-3.8-1.1-7.4-2.2-10.5-3.7c-4.2-2.1-8.2-5.2-12.4-8.6c-4.9-3.9-10-8-16.3-11c-7.7-3.6-16.1-5-24.1-6.2
	c-4.3-0.7-8.3-1.3-12-2.3c-6.4-1.6-12.3-4.3-18.6-7.2c-3.8-1.7-7.7-3.5-11.8-5c-11.1-4.2-22.6-6.7-34.4-9.1l-2-0.4
	c-10.2-2-19.8-4-29-7.5c-2.2-0.8-4.3-1.8-6.6-2.7c-8.9-3.8-18.9-8.1-30.3-7c-6.3,0.6-12.3,2.7-18.1,4.8c-5.8,2.1-11.3,4-15.5,3.8
	c-4-0.2-8.8-2.7-13.8-5.3c-5.3-2.8-10.7-5.6-17-6.9c-13.6-2.8-26.6,2.8-39.8,9.2c-10.8,5.3-22.4,11.3-33.3,19.4c-2.6,2-5.2,4-7.7,6
	c-6.6,5.3-12.9,10.4-18.5,11.9c-5.7,1.6-12.9,0-20.5-1.7c-2.2-0.5-4.5-1-6.8-1.4c-7.4-1.4-14.9-2.2-22.1-2.9
	c-3.9-0.4-7.8-0.8-11.8-1.3c-1.3-0.2-2.7-0.3-4-0.5c-10.9-1.5-23.3-3.1-34.6,1.7c-8.9,3.8-15.5,10.9-22,17.8c-2.4,2.5-4.6,4.9-6.8,7
	c-6.1,5.8-12.8,9.8-20.8,12.5V258c0.9-0.2,1.9-0.5,2.8-0.8C51.6,253.7,62,247.8,71,239.3z"/>
<path d="M51.5,283.8c11.6-3.4,21.5-9,30.1-17.1c2.6-2.4,5-5,7.3-7.5c4.7-5,9.6-10.2,14.2-12.2c5.7-2.4,13.8-1.3,22.4-0.2
	c1.3,0.2,2.7,0.4,4,0.5c4,0.5,7.9,0.9,11.7,1.3c6.7,0.7,12.9,1.3,19.1,2.5c1.9,0.4,3.8,0.8,5.9,1.2c8.8,1.9,18.7,4.1,28.7,1.3
	c9.1-2.5,16.9-8.8,24.5-14.8c2.3-1.9,4.5-3.6,6.7-5.3c9.1-6.7,19-11.9,28.4-16.5c9.3-4.5,18.3-8.5,25.2-7.1
	c3.2,0.6,6.9,2.6,10.9,4.7c6,3.2,12.9,6.8,20.9,7.2c7.9,0.5,15.6-2.2,22.3-4.6c4.5-1.6,8.8-3.1,12.3-3.5c5.9-0.5,12.4,2.2,19.2,5.2
	c2.2,1,4.6,2,7,2.9c10.2,3.9,20.6,6,30.5,8l1.9,0.4c10.3,2.1,20.3,4.2,29.4,7.7c3.3,1.3,6.6,2.8,10.1,4.3c6.5,2.9,13.1,5.9,20.8,7.9
	c4.4,1.1,8.9,1.8,13.2,2.5c6.5,1,12.7,2,17.5,4.3c3.8,1.8,7.5,4.8,11.5,7.9c4.6,3.7,9.3,7.5,15.2,10.4c5.2,2.5,10.5,4,15.7,5.5
	c5.6,1.6,10.9,3.1,14.6,5.6c1.8,1.2,3.4,2.8,5,4.6v-24.6c-4.6-2.1-9.5-3.5-14.2-4.8c-4.5-1.3-8.8-2.5-12.3-4.2
	c-3.9-1.9-7.6-4.9-11.6-8c-4.7-3.7-9.5-7.6-15.5-10.4c-7.4-3.5-15.3-4.7-22.9-5.9c-4-0.6-7.8-1.2-11.3-2.1c-6-1.5-11.6-4.1-17.5-6.7
	c-3.6-1.6-7.3-3.3-11.2-4.8c-10.5-4-21.4-6.4-32.6-8.6l-1.9-0.4c-9.6-1.9-18.6-3.7-27.3-7.1c-2-0.8-4.1-1.7-6.3-2.6
	c-8.4-3.6-18-7.7-28.9-6.7c-6.1,0.6-11.7,2.6-17.2,4.5c-5.4,1.9-10.5,3.8-14.4,3.5c-3.7-0.2-8.1-2.5-12.8-5
	c-4.8-2.5-10.2-5.3-16.2-6.5c-13-2.6-25.4,2.6-37.9,8.7c-10.3,5-21.2,10.7-31.6,18.4c-2.5,1.9-4.9,3.8-7.3,5.7
	c-6.2,5-12.1,9.7-17.3,11.2c-5.2,1.5-11.9,0-19-1.6c-2.1-0.5-4.2-0.9-6.4-1.4c-7.1-1.4-14.1-2.1-20.9-2.7c-3.6-0.4-7.4-0.7-11.1-1.2
	c-1.3-0.2-2.5-0.3-3.8-0.5c-10.4-1.4-22.2-3-32.9,1.6c-8.5,3.6-15.1,10.7-20.9,16.9c-2.2,2.4-4.3,4.6-6.4,6.6
	c-6.4,6-13.4,10-22,12.5c-2.9,0.9-6,1.6-9.3,2.3v20.5c1.4-0.3,2.9-0.7,4.3-1C44.4,285.7,48,284.9,51.5,283.8z"/>
<path d="M53.6,312.9c3.3-0.7,6.6-1.5,10-2.5c11-3.2,20.4-8.6,28.6-16.2c2.4-2.3,4.7-4.7,6.9-7.1c4.4-4.7,8.9-9.5,13.2-11.4
	c5.2-2.2,12.7-1.2,20.7-0.1c1.3,0.2,2.5,0.3,3.8,0.5c3.8,0.5,7.4,0.8,11,1.2c6.2,0.6,12.1,1.2,17.9,2.3c1.8,0.3,3.6,0.7,5.5,1.2
	c8.3,1.8,17.7,3.9,27.3,1.3c8.7-2.4,16.1-8.4,23.2-14.1c2.2-1.7,4.2-3.4,6.3-4.9c8.5-6.3,17.8-11.1,26.6-15.4
	c8.7-4.2,17-7.9,23.4-6.6c2.9,0.6,6.4,2.4,10.1,4.3c5.7,3,12.2,6.4,19.9,6.9c7.6,0.5,14.8-2.1,21.2-4.4c4.2-1.5,8.2-2.9,11.5-3.2
	c5.4-0.5,11.4,2.1,17.8,4.8c2.1,0.9,4.3,1.8,6.6,2.7c9.7,3.7,19.4,5.7,28.9,7.5l1.7,0.4c9.7,1.9,19.1,4,27.6,7.2
	c3.1,1.2,6.2,2.6,9.5,4c6.1,2.7,12.4,5.6,19.6,7.4c4.2,1.1,8.4,1.7,12.4,2.4c6.1,1,11.9,1.9,16.4,4c3.5,1.7,7,4.4,10.7,7.4
	c4.1,3.3,8.8,7.1,14.5,9.8c4.9,2.4,10,3.8,14.9,5.2c5.2,1.5,10.2,2.9,13.6,5.2c4,2.7,7.5,7.7,11.1,13c2.1,3.1,4.4,6.3,6.9,9.4
	c1.6,1.9,3.2,3.6,4.9,5.3v-32.6c-3.2-4.3-7-8.5-11.7-11.7c-6.1-4.1-12.8-6-19.4-7.8c-4.2-1.2-8.2-2.3-11.5-3.9
	c-3.6-1.8-7.1-4.6-10.8-7.5c-4.4-3.5-9-7.2-14.7-9.9c-7-3.3-14.5-4.5-21.7-5.6c-3.8-0.6-7.3-1.2-10.6-2c-5.6-1.4-10.8-3.8-16.4-6.3
	c-3.4-1.5-6.9-3.1-10.5-4.5c-9.9-3.8-20.2-6-30.8-8.1l-1.8-0.4c-9-1.8-17.5-3.5-25.6-6.6c-1.9-0.7-3.8-1.6-5.9-2.4
	c-8-3.4-17-7.3-27.5-6.3c-5.8,0.5-11.2,2.4-16.4,4.3c-4.8,1.7-9.8,3.5-13.3,3.3c-3.4-0.2-7.5-2.4-11.8-4.6
	c-4.5-2.4-9.7-5.1-15.4-6.2c-12.4-2.5-24.2,2.5-36.1,8.3c-9.7,4.7-20,10.1-29.8,17.4c-2.4,1.8-4.7,3.6-6.9,5.4
	c-5.8,4.7-11.3,9.1-16.1,10.4c-4.8,1.3-11,0-17.6-1.5c-2-0.4-4-0.9-6.1-1.3c-6.7-1.3-13.3-1.9-19.7-2.6c-3.4-0.3-7-0.7-10.5-1.1
	c-1.2-0.1-2.4-0.3-3.6-0.5c-9.9-1.3-21-2.8-31.3,1.6c-8.1,3.5-14.4,10.2-19.9,16.1c-2.1,2.2-4,4.3-6,6.1
	c-5.9,5.6-12.4,9.3-20.5,11.6c-2.7,0.8-5.7,1.5-8.7,2.2c-4.2,0.9-8.4,1.9-12.6,3.3v21.8c0.5-0.3,0.9-0.5,1.4-0.8
	C42.3,315.4,47.8,314.2,53.6,312.9z"/>
<path d="M51.7,343.7c4-2.1,9.1-3.2,14.5-4.5c3.1-0.7,6.2-1.4,9.4-2.3c10.4-3.1,19.3-8.1,27-15.4c2.3-2.1,4.4-4.4,6.5-6.7
	c4.1-4.3,8.3-8.8,12.1-10.5c4.7-2,11.7-1.1,19.1-0.1c1.2,0.2,2.3,0.3,3.5,0.5c3.5,0.4,7,0.8,10.3,1.1c5.8,0.6,11.4,1.1,16.7,2.2
	c1.7,0.3,3.4,0.7,5.1,1.1c7.9,1.7,16.8,3.7,25.9,1.2c8.3-2.3,15.3-7.9,22-13.3c2-1.6,3.9-3.2,5.9-4.6c7.9-5.9,16.6-10.4,24.9-14.4
	c8.1-3.9,15.8-7.3,21.5-6.2c2.7,0.5,5.9,2.2,9.3,4c5.4,2.8,11.6,6.1,18.9,6.5c7.2,0.4,14.1-2,20.1-4.2c3.9-1.4,7.6-2.7,10.6-3
	c4.9-0.5,10.2,1.8,16.4,4.5c2,0.9,4.1,1.7,6.2,2.5c9.1,3.5,18.3,5.3,27.2,7.1l1.6,0.3c9,1.8,17.8,3.7,25.7,6.7
	c2.9,1.1,5.8,2.4,8.9,3.8c5.7,2.6,11.7,5.3,18.5,7c3.9,1,7.9,1.6,11.7,2.2c5.7,0.9,11.1,1.8,15.2,3.7c3.2,1.5,6.5,4.1,9.9,6.9
	c3.9,3.1,8.3,6.7,13.7,9.3c4.7,2.3,9.4,3.6,14.1,4.9c4.9,1.4,9.5,2.7,12.6,4.8c3.7,2.5,6.9,7.1,10.3,12c2,2.9,4.1,6,6.5,8.8
	c7,8.4,15.3,14.1,24,19.5v-24.2c-3.2-2.5-6.1-5.1-8.6-8.1c-1.8-2.2-3.6-4.7-5.4-7.4c-4.1-5.9-8.7-12.7-15.6-17.3
	c-5.8-3.9-12.5-5.8-18.3-7.4c-3.9-1.1-7.7-2.1-10.7-3.6c-3.4-1.7-6.6-4.2-10-7c-4.2-3.3-8.5-6.8-13.9-9.3
	c-6.7-3.1-13.7-4.3-20.5-5.3c-3.5-0.6-6.9-1.1-9.9-1.9c-5.2-1.3-10.1-3.5-15.3-5.9c-3.2-1.4-6.5-2.9-9.9-4.2
	c-9.3-3.6-19-5.7-28.9-7.6l-1.6-0.3c-8.4-1.7-16.4-3.3-23.9-6.2c-1.8-0.7-3.6-1.4-5.5-2.3c-7.6-3.2-16.1-6.9-26.1-6
	c-5.5,0.5-10.6,2.3-15.5,4.1c-4.5,1.6-9.1,3.2-12.2,3c-3-0.2-6.8-2.2-10.8-4.3c-4.3-2.2-9.1-4.8-14.6-5.9
	c-11.9-2.4-22.9,2.3-34.2,7.8c-9.1,4.4-18.8,9.5-28,16.4c-2.2,1.7-4.4,3.4-6.5,5.1c-5.4,4.3-10.5,8.4-14.9,9.7
	c-4.3,1.2-10.1-0.1-16.2-1.4c-1.8-0.4-3.7-0.8-5.7-1.2c-6.3-1.2-12.5-1.8-18.5-2.4c-3.2-0.3-6.5-0.6-9.8-1.1
	c-1.1-0.1-2.2-0.3-3.3-0.4c-9.3-1.3-19.9-2.7-29.7,1.5c-7.7,3.3-13.6,9.6-18.9,15.2c-1.9,2.1-3.8,4-5.6,5.7
	c-5.5,5.2-11.5,8.6-19,10.8c-2.5,0.7-5.3,1.4-8.2,2c-6.4,1.4-13.1,2.9-19.4,6.3c-2.1,1.1-4,2.3-5.9,3.6v25.5c2.1-1.5,4-3.1,5.9-4.7
	C45.7,347.8,48.7,345.3,51.7,343.7z"/>
<path d="M57,376c3-2.4,5.8-4.8,8.5-6.2c3.6-1.9,8.4-3,13.4-4.1c2.9-0.6,5.9-1.3,8.8-2.2c9.8-2.9,18.2-7.6,25.5-14.5
	c2.1-2,4.2-4.2,6.1-6.2c3.7-4,7.6-8.2,11.1-9.6c4.2-1.8,11-0.9,17.5,0c1.1,0.1,2.2,0.3,3.3,0.4c3.3,0.4,6.5,0.7,9.7,1
	c5.4,0.5,10.6,1,15.6,2c1.6,0.3,3.1,0.6,4.8,1c7.4,1.6,15.8,3.5,24.5,1.1c7.9-2.2,14.4-7.5,20.8-12.6c1.9-1.5,3.7-2.9,5.5-4.3
	c7.3-5.5,15.4-9.7,23.1-13.4c7.4-3.6,14.5-6.8,19.6-5.7c2.4,0.5,5.3,2,8.5,3.7c5.1,2.7,10.9,5.7,17.9,6.2c6.9,0.4,13.3-1.9,19-3.9
	c3.6-1.3,7-2.5,9.7-2.8c4.4-0.4,9.3,1.7,15,4.1c1.9,0.8,3.8,1.6,5.8,2.4c8.6,3.3,17.2,5,25.5,6.7l1.5,0.3c8.4,1.7,16.6,3.4,23.9,6.2
	c2.7,1,5.4,2.2,8.2,3.5c5.4,2.4,11,4.9,17.4,6.6c3.7,1,7.4,1.5,11,2.1c5.3,0.8,10.2,1.6,14,3.4c3,1.4,5.9,3.8,9.1,6.3
	c3.7,2.9,7.8,6.3,12.9,8.8c4.4,2.2,8.9,3.4,13.3,4.6c4.5,1.3,8.7,2.4,11.6,4.3c3.3,2.2,6.3,6.5,9.4,11c1.9,2.7,3.8,5.6,6.1,8.3
	c6.8,8.2,14.9,13.6,23.4,18.8l1.8,1.1c6.8,4.2,13.3,8.3,17.8,13.4c0.1,0.1,0.1,0.2,0.2,0.3v-25.8c-2.5-1.7-5-3.2-7.5-4.8l-1.7-1.1
	c-7.3-4.5-13.7-8.8-18.6-14.6c-1.7-2-3.3-4.4-5-6.9c-3.9-5.6-8.2-11.9-14.7-16.3c-5.5-3.7-11.8-5.5-17.3-7c-3.6-1-7.1-2-9.8-3.3
	c-3.1-1.5-6-3.9-9.2-6.4c-3.7-3-8-6.4-13.1-8.8c-6.3-3-12.9-4-19.3-5c-3.3-0.5-6.4-1-9.2-1.7c-4.8-1.2-9.3-3.3-14.1-5.4
	c-3-1.3-6.1-2.7-9.3-4c-8.8-3.3-17.8-5.3-27.1-7.2l-1.5-0.3c-7.8-1.6-15.2-3-22.2-5.7c-1.6-0.6-3.3-1.3-5.1-2.1
	c-7.1-3-15.2-6.5-24.6-5.6c-5.2,0.5-10,2.2-14.6,3.8c-4.1,1.5-8.3,3-11.1,2.8c-2.7-0.2-6.1-2-9.8-3.9c-4-2.1-8.6-4.5-13.8-5.6
	c-11.3-2.3-21.7,2.2-32.4,7.3c-8.5,4.2-17.6,8.9-26.3,15.3c-2.1,1.6-4.1,3.2-6,4.7c-4.8,3.8-9.7,7.8-13.6,8.9
	c-3.9,1.1-9.2-0.1-14.8-1.3c-1.7-0.4-3.5-0.8-5.3-1.1c-5.9-1.1-11.7-1.7-17.4-2.3c-3-0.3-6.1-0.6-9.1-1c-1-0.1-2.1-0.3-3.1-0.4
	c-8.8-1.2-18.8-2.5-28,1.5c-7.3,3.1-12.9,9.1-17.8,14.4c-1.8,1.9-3.5,3.8-5.2,5.3c-5,4.7-10.6,7.9-17.4,9.9
	c-2.3,0.7-4.9,1.3-7.6,1.9c-6.1,1.4-12.3,2.8-18.3,5.9c-4.6,2.4-8.4,5.5-12,8.5c-2.6,2.2-5.1,4.2-7.7,5.8v21.8
	c3.1-1,6.1-2.3,9.1-3.9C50,381.8,53.7,378.7,57,376z"/>
<path d="M44.4,415.4c5.5-1.5,11.1-3.1,16.5-6.1c4.1-2.3,7.6-5.2,10.6-7.7c2.7-2.2,5.3-4.4,7.8-5.7c3.3-1.7,7.6-2.7,12.2-3.7
	c2.7-0.6,5.5-1.2,8.2-2c9.2-2.7,17.1-7.2,24-13.6c2-1.9,3.9-3.9,5.7-5.8c3.4-3.7,7-7.5,10.1-8.8c1.6-0.7,3.5-0.9,5.7-0.9
	c3.1,0,6.6,0.5,10.1,0.9c1,0.1,2,0.3,3.1,0.4c3.1,0.4,6.1,0.7,9,1c5,0.5,9.8,1,14.4,1.9c1.4,0.3,2.9,0.6,4.4,0.9
	c7,1.5,14.9,3.3,23.1,1c7.5-2.1,13.6-7,19.5-11.8c1.7-1.4,3.4-2.7,5.1-4c6.8-5,14.2-8.9,21.3-12.4c6.8-3.3,13.2-6.2,17.8-5.2
	c2.1,0.4,4.8,1.8,7.7,3.3c4.8,2.5,10.3,5.4,16.9,5.8c6.5,0.4,12.6-1.8,18-3.7c3.3-1.2,6.4-2.3,8.9-2.5c3.9-0.4,8.4,1.6,13.6,3.8
	c1.7,0.7,3.5,1.5,5.4,2.2c8,3.1,16,4.7,23.7,6.2l1.4,0.3c7.8,1.6,15.3,3.2,22.1,5.8c2.5,1,5,2.1,7.6,3.2c5,2.3,10.2,4.6,16.2,6.1
	c3.5,0.9,6.9,1.4,10.3,2c4.8,0.8,9.4,1.5,12.8,3.1c2.7,1.3,5.4,3.4,8.3,5.8c3.4,2.8,7.3,5.9,12.1,8.2c4.1,2,8.4,3.2,12.4,4.4
	c4.1,1.2,8,2.2,10.5,3.9c3,2,5.7,5.9,8.5,10.1c1.8,2.6,3.6,5.2,5.7,7.8c6.4,7.7,14,12.7,21.9,17.6l1.7,1c6.3,3.9,12.3,7.6,16.4,12.3
	c2,2.3,3.9,5.1,5.8,8c2.6,4,5.6,8.6,9.6,12.6c2.2,2.2,4.6,4.1,7,5.8v-29.6c-2.2-3.4-4.5-6.9-7.5-10.2c-6.1-6.8-13.9-11.7-20.8-16
	l-1.6-1c-6.7-4.2-12.6-8.1-17.1-13.4c-1.5-1.8-3-4-4.6-6.3c-3.6-5.2-7.7-11.2-13.8-15.3c-5.2-3.5-11.1-5.1-16.3-6.6
	c-3.4-0.9-6.5-1.8-9-3.1c-2.8-1.4-5.5-3.6-8.4-5.9c-3.5-2.8-7.5-6-12.3-8.3c-5.9-2.8-12.4-3.8-18.2-4.7c-3-0.5-5.9-0.9-8.4-1.6
	c-4.4-1.1-8.6-3-13-5c-2.8-1.2-5.6-2.5-8.7-3.7c-8.2-3.1-16.6-5-25.3-6.7l-1.4-0.3c-7.2-1.4-14.1-2.8-20.5-5.3
	c-1.5-0.6-3.1-1.2-4.7-1.9c-6.7-2.9-14.3-6.1-23.2-5.3c-4.9,0.4-9.6,2.1-13.8,3.6c-3.7,1.3-7.6,2.7-10.1,2.6
	c-2.3-0.1-5.5-1.8-8.8-3.5c-3.8-2-8.1-4.2-13-5.2c-11.6-2.3-23,3.2-30.5,6.9c-8,3.9-16.4,8.3-24.5,14.3c-2,1.5-3.8,3-5.6,4.4
	c-4.4,3.5-8.9,7.1-12.4,8.1c-3.4,1-8.3-0.1-13.4-1.3c-1.6-0.4-3.3-0.7-5-1.1c-5.5-1.1-10.9-1.6-16.2-2.1c-2.8-0.3-5.6-0.6-8.5-0.9
	c-1-0.1-1.9-0.2-2.9-0.4c-8.3-1.1-17.6-2.4-26.4,1.4c-7,3-12.2,8.6-16.8,13.5c-1.7,1.8-3.2,3.5-4.8,4.9c-4.6,4.3-9.7,7.2-15.9,9
	c-2.2,0.6-4.5,1.2-7,1.7c-5.4,1.2-11.5,2.6-17.2,5.5c-4.4,2.3-8,5.3-11.2,8c-2.6,2.2-5.1,4.2-7.6,5.6c-3.3,1.8-7.6,3.1-12.2,4.3
	c-0.8,0.2-1.6,0.4-2.4,0.7v21c0.1,0,0.1,0,0.2-0.1C39.1,416.8,41.7,416.1,44.4,415.4z"/>
<path d="M549.8,474.3c-3.2-2.2-6.3-4.3-8.5-6.5c-2.3-2.3-4.3-5.3-6.4-8.5c-2.1-3.2-4.3-6.5-7-9.7c-5.7-6.4-12.9-10.9-19.4-14.9
	l-1.5-0.9c-6.1-3.8-11.5-7.4-15.6-12.3c-1.4-1.7-2.8-3.7-4.2-5.8c-3.4-4.9-7.2-10.5-13-14.3c-4.9-3.3-10.4-4.8-15.2-6.2
	c-3.1-0.9-5.9-1.7-8.2-2.8c-2.5-1.2-5-3.2-7.6-5.3c-3.3-2.6-7-5.6-11.5-7.7c-5.6-2.6-11.6-3.6-17-4.4c-2.8-0.4-5.4-0.9-7.7-1.5
	c-4-1-7.8-2.8-11.9-4.6c-2.6-1.2-5.2-2.3-8-3.4c-7.6-2.9-15.5-4.6-23.5-6.2l-1.3-0.3c-6.6-1.3-12.9-2.6-18.8-4.8
	c-1.4-0.5-2.8-1.1-4.3-1.8c-6.3-2.7-13.4-5.7-21.8-4.9c-4.6,0.4-9,2-12.9,3.4c-3.4,1.2-6.9,2.5-9,2.3c-2-0.1-5-1.7-7.8-3.2
	c-3.5-1.9-7.6-4-12.2-4.9c-10.9-2.2-21.6,3-28.6,6.4c-7.4,3.6-15.2,7.7-22.8,13.3c-1.8,1.3-3.5,2.7-5.2,4.1c-4,3.2-8.1,6.5-11.2,7.4
	c-3,0.8-7.4-0.1-12-1.2c-1.5-0.3-3.1-0.7-4.6-1c-5.1-1-10.1-1.5-15-2c-2.6-0.3-5.2-0.5-7.8-0.8c-0.9-0.1-1.8-0.2-2.7-0.4
	c-7.7-1-16.5-2.2-24.8,1.3c-6.6,2.8-11.5,8-15.8,12.7c-1.5,1.6-3,3.2-4.4,4.5c-4.2,3.9-8.7,6.5-14.4,8.2c-2,0.6-4.1,1.1-6.4,1.6
	c-5,1.1-10.7,2.4-16,5.2c-4.1,2.1-7.5,5-10.5,7.5c-2.4,2-4.7,3.9-6.9,5.1c-3,1.7-6.9,2.8-11.1,3.9c-2.7,0.8-5.5,1.5-8.3,2.5
	c-3.6,1.3-6.8,2.8-10,4.2c-0.2,0.1-0.3,0.1-0.5,0.2v21.8c3.2-1.2,6-2.5,8.8-3.8c2.9-1.3,5.6-2.6,8.3-3.6c2.1-0.8,4.5-1.4,7-2.1
	c5.1-1.4,10.4-2.9,15.4-5.7c3.9-2.1,7.1-4.8,9.9-7.2c2.5-2,4.8-4,7.1-5.2c2.9-1.5,6.9-2.4,11.1-3.4c2.5-0.6,5.1-1.1,7.7-1.9
	c8.7-2.5,16-6.7,22.4-12.8c1.9-1.8,3.6-3.6,5.3-5.4c3.1-3.3,6.3-6.8,9-7.9c1.3-0.6,3.1-0.8,5-0.8c2.8,0,6.1,0.4,9.3,0.9
	c0.9,0.1,1.9,0.3,2.8,0.4c2.9,0.4,5.6,0.6,8.3,0.9c4.6,0.5,9,0.9,13.2,1.7c1.4,0.3,2.7,0.6,4.1,0.9c6.5,1.4,13.9,3.1,21.7,0.9
	c7-2,12.8-6.6,18.3-11c1.6-1.3,3.1-2.5,4.6-3.6c6.2-4.6,13.1-8.2,19.6-11.3c4.6-2.2,11.6-5.7,15.9-4.8c1.8,0.4,4.3,1.7,6.9,3
	c4.5,2.4,9.7,5.1,15.9,5.4c6.2,0.4,11.9-1.7,16.9-3.4c3-1.1,5.9-2.1,8-2.3c3.4-0.3,7.5,1.4,12.1,3.4c1.6,0.7,3.3,1.4,5,2.1
	c7.5,2.9,14.9,4.3,22.1,5.8l1.3,0.3c7.1,1.4,14.1,2.9,20.3,5.3c2.3,0.9,4.6,1.9,7,3c4.7,2.1,9.5,4.3,15.1,5.7
	c3.2,0.8,6.4,1.3,9.6,1.8c4.4,0.7,8.6,1.4,11.6,2.8c2.4,1.1,4.9,3.1,7.5,5.2c3.2,2.6,6.8,5.5,11.3,7.7c3.9,1.9,8,3.1,11.6,4.1
	c3.7,1,7.3,2,9.5,3.5c2.6,1.8,5.1,5.3,7.7,9.1c1.6,2.4,3.3,4.8,5.3,7.2c6,7.2,13,11.9,20.4,16.4l1.5,1c5.8,3.6,11.2,7,15,11.2
	c1.8,2.1,3.5,4.6,5.3,7.3c2.5,3.7,5.2,8,9,11.7c3.6,3.6,7.6,6.3,11.5,8.9c2.8,1.9,5.4,3.6,7.5,5.5h11.4v-16.6
	C555,477.7,552.4,476,549.8,474.3z"/>
<path d="M517.9,488.7c-2-2-3.8-4.8-5.7-7.7c-1.9-3-3.9-6-6.5-8.9c-5.3-6-12-10.1-17.9-13.8l-1.4-0.9c-5.5-3.5-10.4-6.7-14.1-11.1
	c-1.3-1.5-2.5-3.3-3.8-5.2c-3.1-4.6-6.7-9.7-12.1-13.4c-4.6-3.1-9.7-4.5-14.2-5.8c-2.8-0.8-5.4-1.5-7.4-2.5
	c-2.2-1.1-4.4-2.9-6.8-4.8c-3-2.4-6.5-5.2-10.7-7.2c-5.2-2.5-10.8-3.4-15.8-4.1c-2.5-0.4-4.9-0.8-7-1.3c-3.6-0.9-7.1-2.5-10.8-4.2
	c-2.4-1.1-4.8-2.2-7.4-3.2c-7-2.7-14.3-4.2-21.6-5.7l-1.2-0.2c-6.1-1.2-11.8-2.4-17.1-4.4c-1.3-0.5-2.6-1-3.9-1.6
	c-5.5-2.4-12.4-5.3-20.4-4.6c-4.4,0.4-8.4,1.8-12,3.1c-2.9,1-6.1,2.2-7.9,2.1c-1.6-0.1-4.3-1.5-6.9-2.8c-3.3-1.7-7-3.7-11.4-4.6
	c-10.3-2.1-20.2,2.7-26.8,5.9c-6.8,3.3-14,7.1-21,12.2c-1.7,1.2-3.3,2.5-4.8,3.8c-3.6,2.9-7.3,5.8-9.9,6.6
	c-2.5,0.7-6.5-0.2-10.6-1.1c-1.4-0.3-2.8-0.6-4.2-0.9c-4.7-0.9-9.4-1.4-13.8-1.8c-2.3-0.2-4.7-0.5-7.1-0.8c-0.8-0.1-1.6-0.2-2.4-0.3
	c-7.2-1-15.3-2.1-23.2,1.3c-6.2,2.7-10.7,7.5-14.7,11.8c-1.4,1.5-2.7,2.9-4,4.1c-3.7,3.5-7.8,5.8-12.8,7.3c-1.8,0.5-3.7,1-5.8,1.4
	c-4.7,1-10,2.2-14.9,4.8c-3.8,2-7,4.6-9.8,6.9c-2.2,1.8-4.2,3.5-6.2,4.6c-2.6,1.5-6.2,2.5-10,3.5c-2.5,0.7-5,1.4-7.6,2.3
	c-3.3,1.2-6.3,2.6-9.2,3.9c-3.2,1.5-6.2,2.9-9.4,3.9c-1.5,0.5-3.2,0.9-5,1.4c-1.2,0.3-2.5,0.7-3.8,1v21.3c2.1-1.2,5.7-2.1,8.9-3
	c1.9-0.5,3.9-1,6-1.7c4.4-1.4,8.3-3.2,11.7-4.8c2.6-1.2,5.1-2.4,7.5-3.2c1.9-0.7,4.1-1.3,6.3-1.9c4.5-1.3,9.6-2.7,14.3-5.3
	c3.6-2,6.6-4.5,9.2-6.7c2.2-1.8,4.3-3.6,6.3-4.6c2.6-1.4,6.2-2.2,10-3c2.3-0.5,4.7-1,7.1-1.8c8.1-2.4,14.9-6.3,20.9-11.9
	c1.7-1.6,3.3-3.3,4.9-5c2.8-3,5.7-6.1,8-7.1c1.1-0.5,2.6-0.7,4.2-0.7c2.5,0,5.5,0.4,8.4,0.8c0.9,0.1,1.7,0.2,2.6,0.3
	c2.6,0.3,5.2,0.6,7.6,0.8c4.2,0.4,8.2,0.8,12,1.5c1.2,0.2,2.5,0.5,3.7,0.8c6.1,1.3,13,2.9,20.3,0.8c6.6-1.8,11.9-6.1,17.1-10.3
	c1.5-1.2,2.9-2.3,4.2-3.3c5.6-4.2,11.9-7.4,17.8-10.3c4.1-2,10.4-5.1,14.1-4.3c1.6,0.3,3.9,1.5,6.1,2.7c4,2.1,9,4.7,14.9,5.1
	c5.8,0.3,11.1-1.5,15.8-3.2c2.6-0.9,5.3-1.9,7.1-2c2.9-0.3,6.5,1.3,10.7,3.1c1.5,0.6,3,1.3,4.6,1.9c6.9,2.7,13.7,4,20.4,5.3l1.2,0.2
	c6.5,1.3,12.8,2.7,18.4,4.8c2.1,0.8,4.1,1.7,6.3,2.7c4.3,1.9,8.8,3.9,14,5.3c3,0.8,6,1.2,8.8,1.7c4,0.6,7.7,1.2,10.4,2.5
	c2.1,1,4.3,2.8,6.7,4.7c3,2.4,6.3,5.1,10.5,7.1c3.6,1.8,7.4,2.9,10.8,3.8c3.4,0.9,6.5,1.8,8.5,3.1c2.3,1.5,4.5,4.7,6.8,8.1
	c1.5,2.2,3.1,4.5,4.9,6.7c5.5,6.7,12.1,11,18.9,15.2l1.4,0.9c5.2,3.3,10.2,6.3,13.5,10.1c1.6,1.8,3.2,4.2,4.8,6.6
	c0.9,1.4,1.9,2.9,3,4.4h29.9c-0.9-0.6-1.8-1.2-2.6-1.8C522.7,492.6,519.9,490.7,517.9,488.7z"/>
<path d="M467,481.8l-1.2-0.8c-5-3.1-9.3-6-12.6-9.9c-1.1-1.3-2.2-3-3.4-4.7c-2.9-4.2-6.2-9-11.3-12.4c-4.3-2.9-9-4.2-13.2-5.4
	c-2.5-0.7-4.8-1.3-6.5-2.2c-1.9-0.9-3.9-2.5-6-4.3c-2.8-2.2-6-4.8-9.9-6.6c-4.9-2.3-10-3.1-14.6-3.8c-2.3-0.4-4.4-0.7-6.3-1.2
	c-3.2-0.8-6.3-2.2-9.6-3.7c-2.2-1-4.4-2-6.8-2.9c-6.5-2.5-13.1-3.9-19.8-5.2l-1.1-0.2c-5.5-1.1-10.6-2.1-15.4-4
	c-1.1-0.4-2.3-0.9-3.5-1.5c-5.1-2.2-11.5-4.9-19-4.2c-4.1,0.4-7.8,1.7-11.2,2.9c-2.4,0.9-5.4,1.9-6.8,1.8c-1.3-0.1-3.7-1.3-5.9-2.5
	c-3.1-1.6-6.5-3.4-10.6-4.2c-9.7-1.9-18.8,2.5-24.9,5.5c-6.2,3-12.9,6.5-19.2,11.2c-1.5,1.1-3,2.3-4.4,3.4c-3.2,2.6-6.5,5.2-8.7,5.8
	c-2.1,0.6-5.5-0.2-9.2-1c-1.3-0.3-2.6-0.6-3.9-0.8c-4.3-0.8-8.6-1.3-12.7-1.7c-2.1-0.2-4.3-0.4-6.4-0.7c-0.7-0.1-1.5-0.2-2.2-0.3
	c-6.6-0.9-14.2-1.9-21.5,1.2c-5.8,2.5-10,7-13.7,10.9c-1.3,1.3-2.4,2.6-3.6,3.7c-3.3,3.1-6.9,5.1-11.3,6.4c-1.6,0.5-3.4,0.9-5.2,1.3
	c-4.3,1-9.2,2.1-13.8,4.5c-3.6,1.9-6.5,4.3-9,6.4c-1.9,1.6-3.8,3.1-5.5,4.1c-2.3,1.3-5.5,2.2-8.9,3.1c-2.3,0.6-4.6,1.3-7,2.1
	c-3,1.1-5.8,2.4-8.5,3.6c-2.9,1.3-5.6,2.6-8.5,3.5c-1.4,0.4-2.9,0.8-4.5,1.3c-5.9,1.5-12.5,3.3-17.6,8.3c-2.3,2.3-4,4.9-5.3,7.6
	h38.8c2-0.8,3.8-1.7,5.5-2.5c2.4-1.1,4.6-2.1,6.8-2.9c1.7-0.6,3.7-1.2,5.7-1.7c4.1-1.2,8.8-2.5,13.2-4.9c3.3-1.9,6.1-4.1,8.5-6.2
	c2-1.7,3.9-3.2,5.6-4.1c2.3-1.2,5.5-1.9,8.9-2.7c2.1-0.5,4.3-1,6.5-1.6c7.5-2.2,13.8-5.8,19.4-11c1.6-1.5,3.1-3.1,4.5-4.6
	c2.4-2.5,5-5.4,7-6.2c0.9-0.4,2.1-0.5,3.5-0.5c2.2,0,4.9,0.4,7.5,0.7c0.8,0.1,1.6,0.2,2.4,0.3c2.4,0.3,4.7,0.5,7,0.8
	c3.8,0.4,7.4,0.7,10.9,1.4c1.1,0.2,2.2,0.5,3.3,0.7c5.6,1.2,12,2.7,18.9,0.7c6.2-1.7,11.3-5.9,15.9-9.5c1.3-1.1,2.6-2.1,3.8-3
	c5-3.8,10.7-6.7,16-9.3c3.4-1.7,9.2-4.5,12.2-3.8c1.3,0.3,3.3,1.3,5.3,2.4c3.7,2,8.4,4.4,13.9,4.7c5.5,0.3,10.4-1.4,14.7-3
	c2.3-0.8,4.7-1.7,6.3-1.8c2.4-0.2,5.8,1.2,9.3,2.7c1.4,0.6,2.8,1.2,4.2,1.7c6.4,2.4,12.6,3.7,18.6,4.9l1.1,0.2
	c5.9,1.2,11.6,2.4,16.6,4.3c1.8,0.7,3.7,1.6,5.7,2.4c3.8,1.7,8.1,3.6,12.9,4.9c2.8,0.7,5.5,1.1,8.1,1.6c3.6,0.6,6.9,1.1,9.2,2.2
	c1.8,0.8,3.8,2.5,5.9,4.2c2.7,2.2,5.8,4.7,9.7,6.6c3.4,1.7,6.9,2.6,10,3.5c3,0.8,5.8,1.6,7.4,2.7c1.9,1.3,3.9,4.1,5.9,7.1
	c1.4,2,2.8,4.1,4.5,6.1c4.4,5.3,9.5,9,14.7,12.4H485c-0.5-0.6-1-1.2-1.5-1.8C478.6,489,472.4,485.2,467,481.8z"/>
<path d="M431,491.9c-2.7-3.9-5.7-8.2-10.4-11.4c-4-2.7-8.3-3.9-12.2-5c-2.2-0.6-4.2-1.2-5.7-1.9c-1.6-0.8-3.4-2.2-5.3-3.7
	c-2.6-2.1-5.5-4.4-9.1-6.1c-4.5-2.1-9.2-2.9-13.4-3.5c-2-0.3-3.9-0.6-5.6-1c-2.8-0.7-5.6-2-8.5-3.3c-2-0.9-4-1.8-6.2-2.6
	c-5.9-2.3-11.9-3.5-18-4.8l-1-0.2c-4.9-1-9.5-1.9-13.7-3.5c-1-0.4-2-0.8-3.1-1.3c-4.7-2-10.6-4.5-17.6-3.9
	c-3.8,0.3-7.2,1.6-10.3,2.7c-2,0.7-4.7,1.7-5.7,1.6c-1-0.1-3.2-1.2-4.9-2.1c-2.8-1.5-6-3.1-9.8-3.9c-9-1.8-17.5,2.3-23.1,5
	c-5.6,2.7-11.7,5.9-17.5,10.2c-1.4,1-2.7,2.1-4,3.1c-2.7,2.1-5.7,4.5-7.5,5.1c-1.6,0.5-4.8-0.2-7.8-0.9c-1.2-0.3-2.3-0.5-3.5-0.7
	c-3.9-0.8-7.8-1.1-11.5-1.5c-1.9-0.2-3.9-0.4-5.8-0.6c-0.7-0.1-1.3-0.2-2-0.3c-5.8-0.8-13-1.8-19.9,1.2c-5.4,2.3-9.3,6.4-12.7,10.1
	c-1.1,1.2-2.2,2.3-3.2,3.3c-2.8,2.6-5.9,4.4-9.8,5.5c-1.4,0.4-3,0.8-4.6,1.1c-3.9,0.9-8.4,1.9-12.6,4.1c-3.3,1.7-6,3.9-8.3,5.9
	c-1.7,1.4-3.3,2.7-4.8,3.6c-2,1.1-4.8,1.9-7.8,2.7c-1.8,0.5-3.7,1.1-5.7,1.7h49.6c6.8-2,12.6-5.3,17.7-10.1c1.5-1.4,2.8-2.8,4.1-4.2
	c2.1-2.2,4.4-4.7,5.9-5.4c0.7-0.3,1.6-0.4,2.7-0.4c1.9,0,4.4,0.3,6.7,0.6c0.7,0.1,1.4,0.2,2.1,0.3c2.2,0.3,4.3,0.5,6.3,0.7
	c3.4,0.3,6.6,0.7,9.7,1.2c1,0.2,2,0.4,3,0.6c4.9,1.1,11,2.4,17.5,0.6c5.8-1.6,10.5-5.4,14.6-8.7c1.2-1,2.3-1.9,3.4-2.7
	c4.5-3.3,9.5-5.9,14.3-8.3c2.8-1.4,8-3.9,10.4-3.4c1,0.2,2.9,1.2,4.5,2c3.4,1.8,7.7,4,13,4.4c5.2,0.3,9.7-1.3,13.7-2.7
	c2-0.7,4.1-1.5,5.4-1.6c1.9-0.2,4.8,1.1,7.9,2.4c1.2,0.5,2.5,1.1,3.8,1.6c5.8,2.2,11.5,3.4,17,4.5l1,0.2c5.3,1.1,10.3,2.1,14.8,3.8
	c1.6,0.6,3.3,1.4,5.1,2.2c3.4,1.5,7.3,3.3,11.7,4.4c2.5,0.7,5,1,7.4,1.4c3.1,0.5,6.1,1,8,1.9c1.5,0.7,3.3,2.1,5.1,3.6
	c2.5,2,5.3,4.3,8.9,6c3.1,1.5,6.3,2.4,9.1,3.2c1.9,0.5,3.7,1,5,1.6h26.2c-0.1-0.1-0.2-0.2-0.3-0.3C433,494.8,432,493.4,431,491.9z"
	/>
<path d="M361.7,488.6c-1.8-0.3-3.4-0.5-4.8-0.9c-2.4-0.6-4.8-1.7-7.4-2.9c-1.8-0.8-3.6-1.6-5.5-2.4c-5.3-2-10.7-3.2-16.2-4.3
	l-0.9-0.2c-4.3-0.9-8.3-1.7-12-3.1c-0.9-0.4-1.8-0.7-2.8-1.1c-4.3-1.8-9.7-4.1-16.2-3.6c-3.5,0.3-6.6,1.4-9.4,2.4
	c-1.5,0.5-3.8,1.4-4.6,1.4c0,0,0,0,0,0c-0.7-0.1-2.6-1.1-3.9-1.8c-2.4-1.3-5.5-2.9-9-3.6c-8.4-1.7-16.1,2.1-21.2,4.5
	c-5.1,2.5-10.5,5.3-15.7,9.2c-1.3,0.9-2.4,1.9-3.6,2.8c-2.2,1.7-4.9,3.9-6.3,4.3c-1.2,0.3-4-0.3-6.4-0.8c-1.1-0.2-2.1-0.5-3.2-0.7
	c-3.6-0.7-7-1-10.3-1.4c-1.8-0.2-3.4-0.3-5.1-0.5c-0.6-0.1-1.2-0.2-1.7-0.2c-5.3-0.7-11.9-1.6-18.3,1.1c-5,2.2-8.5,5.9-11.6,9.2
	c0,0-0.1,0.1-0.1,0.1h81.6c2.8-1.8,5.9-3.4,9.4-5.1c2-1,6.7-3.3,8.5-2.9c0.8,0.2,2.4,1,3.7,1.7c3.1,1.6,7.1,3.7,12,4
	c4.8,0.3,9.1-1.2,12.6-2.5c1.6-0.6,3.5-1.2,4.5-1.3c1.4-0.1,4,1,6.5,2c1.1,0.5,2.2,1,3.5,1.4c3.1,1.2,6.1,2,9.1,2.7h64.1
	c-2-1.6-4.2-3.2-7-4.5C369.7,489.9,365.4,489.2,361.7,488.6z"/>
<rect x="18.1" y="18.2" class="st0" width="551" height="491.4"/>
</svg>
